<svg width="60" height="60" viewBox="0 0 60 60" fill="none" xmlns="http://www.w3.org/2000/svg">
<path d="M49.0301 13.5363C47.9305 12.4152 46.625 11.5258 45.1881 10.9191C43.7512 10.3123 42.2111 10 40.6557 10C39.1004 10 37.5602 10.3123 36.1233 10.9191C34.6864 11.5258 33.3809 12.4152 32.2814 13.5363L29.9994 15.8619L27.7175 13.5363C25.4965 11.2728 22.4841 10.0012 19.3431 10.0012C16.2021 10.0012 13.1898 11.2728 10.9688 13.5363C8.74775 15.7998 7.5 18.8697 7.5 22.0708C7.5 25.2719 8.74775 28.3418 10.9688 30.6053L13.2507 32.9309L29.9994 50L46.7481 32.9309L49.0301 30.6053C50.1301 29.4848 51.0028 28.1543 51.5982 26.6899C52.1936 25.2255 52.5 23.6559 52.5 22.0708C52.5 20.4857 52.1936 18.9161 51.5982 17.4517C51.0028 15.9874 50.1301 14.6569 49.0301 13.5363Z" fill="#E3BBE9" stroke="#E3BBE9" stroke-linecap="round" stroke-linejoin="round"/>
</svg>
